{
	"asset":{
		"generator":"Khronos glTF Blender I/O v5.0.21",
		"version":"2.0"
	},
	"scene":0,
	"scenes":[
		{
			"name":"Scene",
			"nodes":[
				0,
				1,
				2,
				3,
				4,
				5,
				6,
				7,
				8,
				9,
				10,
				11,
				12,
				13,
				14,
				15,
				16,
				17,
				18,
				19,
				20
			]
		}
	],
	"nodes":[
		{
			"mesh":0,
			"name":"fingers_right",
			"rotation":[
				0.6532815098762512,
				0.27059805393218994,
				0.2705981135368347,
				0.6532815098762512
			],
			"translation":[
				0.3499999940395355,
				22.049999237060547,
				0
			]
		},
		{
			"mesh":1,
			"name":"foot_right",
			"rotation":[
				0.70710688829422,
				0,
				0,
				0.7071066498756409
			],
			"translation":[
				0,
				22.399999618530273,
				0
			]
		},
		{
			"mesh":2,
			"name":"fingers_left",
			"rotation":[
				0.6532815098762512,
				-0.27059799432754517,
				-0.27059799432754517,
				0.6532815098762512
			],
			"translation":[
				-0.3499999940395355,
				21.274999618530273,
				0
			]
		},
		{
			"mesh":3,
			"name":"leg_lower_right",
			"rotation":[
				0.70710688829422,
				0,
				0,
				0.7071066498756409
			],
			"translation":[
				0,
				22.399999618530273,
				0
			]
		},
		{
			"mesh":4,
			"name":"hand_right",
			"rotation":[
				0.6532815098762512,
				0.27059805393218994,
				0.2705981135368347,
				0.6532815098762512
			],
			"translation":[
				0,
				22.399999618530273,
				0
			]
		},
		{
			"mesh":5,
			"name":"arm_right",
			"rotation":[
				0.6532815098762512,
				0.27059805393218994,
				0.2705981135368347,
				0.6532815098762512
			],
			"translation":[
				0,
				22.399999618530273,
				0
			]
		},
		{
			"mesh":6,
			"name":"wrist_right",
			"rotation":[
				0.6532815098762512,
				0.27059805393218994,
				0.2705981135368347,
				0.6532815098762512
			],
			"translation":[
				0,
				22.399999618530273,
				0
			]
		},
		{
			"mesh":7,
			"name":"chest",
			"rotation":[
				0.70710688829422,
				0,
				0,
				0.7071066498756409
			],
			"translation":[
				0,
				22.399999618530273,
				0
			]
		},
		{
			"mesh":8,
			"name":"back_lower",
			"rotation":[
				0.70710688829422,
				0,
				0,
				0.7071066498756409
			],
			"translation":[
				0,
				22.399999618530273,
				0
			]
		},
		{
			"mesh":9,
			"name":"torso",
			"rotation":[
				0.70710688829422,
				0,
				0,
				0.7071066498756409
			],
			"translation":[
				0,
				22.399999618530273,
				0
			]
		},
		{
			"mesh":10,
			"name":"leg_upper_left",
			"rotation":[
				0.70710688829422,
				0,
				0,
				0.7071066498756409
			],
			"translation":[
				0,
				22.399999618530273,
				0
			]
		},
		{
			"mesh":11,
			"name":"hand_left",
			"rotation":[
				0.6532815098762512,
				-0.27059799432754517,
				-0.27059799432754517,
				0.6532815098762512
			],
			"translation":[
				0,
				22.399999618530273,
				0
			]
		},
		{
			"mesh":12,
			"name":"pelvis",
			"rotation":[
				0.70710688829422,
				0,
				0,
				0.7071066498756409
			],
			"translation":[
				0,
				22.399999618530273,
				0
			]
		},
		{
			"mesh":13,
			"name":"foot_left",
			"rotation":[
				0.70710688829422,
				0,
				0,
				0.7071066498756409
			],
			"translation":[
				0,
				22.399999618530273,
				0
			]
		},
		{
			"mesh":14,
			"name":"leg_lower_left",
			"rotation":[
				0.70710688829422,
				0,
				0,
				0.7071066498756409
			],
			"translation":[
				0,
				22.399999618530273,
				0
			]
		},
		{
			"mesh":15,
			"name":"Leg_upper_right",
			"rotation":[
				0.70710688829422,
				0,
				0,
				0.7071066498756409
			],
			"translation":[
				0,
				22.399999618530273,
				0
			]
		},
		{
			"mesh":16,
			"name":"back_upper",
			"rotation":[
				0.70710688829422,
				0,
				0,
				0.7071066498756409
			],
			"translation":[
				0,
				22.399999618530273,
				0
			]
		},
		{
			"mesh":17,
			"name":"head",
			"rotation":[
				0.70710688829422,
				0,
				0,
				0.7071066498756409
			],
			"translation":[
				0,
				22.399999618530273,
				0
			]
		},
		{
			"mesh":18,
			"name":"wrist_left",
			"rotation":[
				0.6532815098762512,
				-0.27059799432754517,
				-0.27059799432754517,
				0.6532815098762512
			],
			"translation":[
				0,
				22.399999618530273,
				0
			]
		},
		{
			"mesh":19,
			"name":"arm_left",
			"rotation":[
				0.6532815098762512,
				-0.27059799432754517,
				-0.27059799432754517,
				0.6532815098762512
			],
			"translation":[
				0,
				22.399999618530273,
				0
			]
		},
		{
			"mesh":20,
			"name":"face",
			"rotation":[
				0.70710688829422,
				0,
				0,
				0.7071066498756409
			],
			"translation":[
				0,
				22.399999618530273,
				0
			]
		}
	],
	"materials":[
		{
			"alphaCutoff":0.05000000074505806,
			"alphaMode":"MASK",
			"doubleSided":true,
			"name":"mat_hand",
			"pbrMetallicRoughness":{
				"baseColorTexture":{
					"index":0
				},
				"metallicFactor":0
			}
		},
		{
			"alphaCutoff":0.05000000074505806,
			"alphaMode":"MASK",
			"doubleSided":true,
			"name":"mat_foot",
			"pbrMetallicRoughness":{
				"baseColorTexture":{
					"index":1
				},
				"metallicFactor":0
			}
		},
		{
			"alphaCutoff":0.05000000074505806,
			"alphaMode":"MASK",
			"doubleSided":true,
			"name":"mat_leg_lower",
			"pbrMetallicRoughness":{
				"baseColorTexture":{
					"index":2
				},
				"metallicFactor":0
			}
		},
		{
			"alphaCutoff":0.05000000074505806,
			"alphaMode":"MASK",
			"doubleSided":true,
			"name":"mat_arm",
			"pbrMetallicRoughness":{
				"baseColorTexture":{
					"index":3
				},
				"metallicFactor":0
			}
		},
		{
			"alphaCutoff":0.05000000074505806,
			"alphaMode":"MASK",
			"doubleSided":true,
			"name":"mat_wrist",
			"pbrMetallicRoughness":{
				"baseColorTexture":{
					"index":4
				},
				"metallicFactor":0
			}
		},
		{
			"alphaCutoff":0.05000000074505806,
			"alphaMode":"MASK",
			"doubleSided":true,
			"name":"mat_chest",
			"pbrMetallicRoughness":{
				"baseColorTexture":{
					"index":5
				},
				"metallicFactor":0
			}
		},
		{
			"alphaCutoff":0.05000000074505806,
			"alphaMode":"MASK",
			"doubleSided":true,
			"name":"mat_back_lower",
			"pbrMetallicRoughness":{
				"baseColorTexture":{
					"index":6
				},
				"metallicFactor":0
			}
		},
		{
			"alphaCutoff":0.05000000074505806,
			"alphaMode":"MASK",
			"doubleSided":true,
			"name":"mat_torso",
			"pbrMetallicRoughness":{
				"baseColorTexture":{
					"index":7
				},
				"metallicFactor":0
			}
		},
		{
			"alphaCutoff":0.05000000074505806,
			"alphaMode":"MASK",
			"doubleSided":true,
			"name":"mat_leg_upper",
			"pbrMetallicRoughness":{
				"baseColorTexture":{
					"index":8
				},
				"metallicFactor":0
			}
		},
		{
			"alphaCutoff":0.05000000074505806,
			"alphaMode":"MASK",
			"doubleSided":true,
			"name":"mat_pelvis",
			"pbrMetallicRoughness":{
				"baseColorTexture":{
					"index":9
				},
				"metallicFactor":0
			}
		},
		{
			"alphaCutoff":0.05000000074505806,
			"alphaMode":"MASK",
			"doubleSided":true,
			"name":"mat_back_upper",
			"pbrMetallicRoughness":{
				"baseColorTexture":{
					"index":10
				},
				"metallicFactor":0
			}
		},
		{
			"alphaCutoff":0.05000000074505806,
			"alphaMode":"MASK",
			"doubleSided":true,
			"name":"mat_head",
			"pbrMetallicRoughness":{
				"baseColorTexture":{
					"index":11
				},
				"metallicFactor":0
			}
		},
		{
			"alphaCutoff":0.05000000074505806,
			"alphaMode":"MASK",
			"doubleSided":true,
			"name":"mat_face",
			"pbrMetallicRoughness":{
				"baseColorTexture":{
					"index":12
				},
				"metallicFactor":0
			}
		}
	],
	"meshes":[
		{
			"name":"mesh_fingers_right",
			"primitives":[
				{
					"attributes":{
						"POSITION":0,
						"NORMAL":1,
						"TEXCOORD_0":2
					},
					"indices":3,
					"material":0
				}
			]
		},
		{
			"name":"mesh_foot_right",
			"primitives":[
				{
					"attributes":{
						"POSITION":4,
						"NORMAL":5,
						"TEXCOORD_0":6
					},
					"indices":7,
					"material":1
				}
			]
		},
		{
			"name":"mesh_fingers_left",
			"primitives":[
				{
					"attributes":{
						"POSITION":8,
						"NORMAL":9,
						"TEXCOORD_0":10
					},
					"indices":3,
					"material":0
				}
			]
		},
		{
			"name":"mesh_leg_lower_right",
			"primitives":[
				{
					"attributes":{
						"POSITION":11,
						"NORMAL":12,
						"TEXCOORD_0":13
					},
					"indices":14,
					"material":2
				}
			]
		},
		{
			"name":"mesh_hand_right",
			"primitives":[
				{
					"attributes":{
						"POSITION":15,
						"NORMAL":16,
						"TEXCOORD_0":17
					},
					"indices":18,
					"material":0
				}
			]
		},
		{
			"name":"mesh_arm_right",
			"primitives":[
				{
					"attributes":{
						"POSITION":19,
						"NORMAL":20,
						"TEXCOORD_0":21
					},
					"indices":22,
					"material":3
				}
			]
		},
		{
			"name":"mesh_wrist_right",
			"primitives":[
				{
					"attributes":{
						"POSITION":23,
						"NORMAL":24,
						"TEXCOORD_0":25
					},
					"indices":26,
					"material":4
				}
			]
		},
		{
			"name":"mesh_chest",
			"primitives":[
				{
					"attributes":{
						"POSITION":27,
						"NORMAL":28,
						"TEXCOORD_0":29
					},
					"indices":18,
					"material":5
				}
			]
		},
		{
			"name":"mesh_back_lower",
			"primitives":[
				{
					"attributes":{
						"POSITION":30,
						"NORMAL":31,
						"TEXCOORD_0":32
					},
					"indices":33,
					"material":6
				}
			]
		},
		{
			"name":"mesh_torso",
			"primitives":[
				{
					"attributes":{
						"POSITION":34,
						"NORMAL":35,
						"TEXCOORD_0":36
					},
					"indices":37,
					"material":7
				}
			]
		},
		{
			"name":"mesh_leg_upper_left",
			"primitives":[
				{
					"attributes":{
						"POSITION":38,
						"NORMAL":39,
						"TEXCOORD_0":40
					},
					"indices":41,
					"material":8
				}
			]
		},
		{
			"name":"mesh_hand_left",
			"primitives":[
				{
					"attributes":{
						"POSITION":42,
						"NORMAL":43,
						"TEXCOORD_0":44
					},
					"indices":18,
					"material":0
				}
			]
		},
		{
			"name":"mesh_pelvis",
			"primitives":[
				{
					"attributes":{
						"POSITION":45,
						"NORMAL":46,
						"TEXCOORD_0":47
					},
					"indices":48,
					"material":9
				}
			]
		},
		{
			"name":"mesh_foot_left",
			"primitives":[
				{
					"attributes":{
						"POSITION":49,
						"NORMAL":50,
						"TEXCOORD_0":51
					},
					"indices":7,
					"material":1
				}
			]
		},
		{
			"name":"mesh_leg_lower_left",
			"primitives":[
				{
					"attributes":{
						"POSITION":52,
						"NORMAL":53,
						"TEXCOORD_0":54
					},
					"indices":14,
					"material":2
				}
			]
		},
		{
			"name":"mesh_leg_upper_right",
			"primitives":[
				{
					"attributes":{
						"POSITION":55,
						"NORMAL":56,
						"TEXCOORD_0":57
					},
					"indices":41,
					"material":8
				}
			]
		},
		{
			"name":"mesh_back_upper",
			"primitives":[
				{
					"attributes":{
						"POSITION":58,
						"NORMAL":59,
						"TEXCOORD_0":60
					},
					"indices":37,
					"material":10
				}
			]
		},
		{
			"name":"mesh_head",
			"primitives":[
				{
					"attributes":{
						"POSITION":61,
						"NORMAL":62,
						"TEXCOORD_0":63
					},
					"indices":64,
					"material":11
				}
			]
		},
		{
			"name":"mesh_wrist_left",
			"primitives":[
				{
					"attributes":{
						"POSITION":65,
						"NORMAL":66,
						"TEXCOORD_0":67
					},
					"indices":26,
					"material":4
				}
			]
		},
		{
			"name":"mesh_arm_left",
			"primitives":[
				{
					"attributes":{
						"POSITION":68,
						"NORMAL":69,
						"TEXCOORD_0":70
					},
					"indices":22,
					"material":3
				}
			]
		},
		{
			"name":"mesh_face",
			"primitives":[
				{
					"attributes":{
						"POSITION":71,
						"NORMAL":72,
						"TEXCOORD_0":73
					},
					"indices":74,
					"material":12
				}
			]
		}
	],
	"textures":[
		{
			"sampler":0,
			"source":0
		},
		{
			"sampler":0,
			"source":1
		},
		{
			"sampler":0,
			"source":2
		},
		{
			"sampler":0,
			"source":3
		},
		{
			"sampler":0,
			"source":4
		},
		{
			"sampler":0,
			"source":5
		},
		{
			"sampler":0,
			"source":6
		},
		{
			"sampler":0,
			"source":7
		},
		{
			"sampler":0,
			"source":8
		},
		{
			"sampler":0,
			"source":9
		},
		{
			"sampler":0,
			"source":10
		},
		{
			"sampler":0,
			"source":11
		},
		{
			"sampler":0,
			"source":12
		}
	],
	"images":[
		{
			"mimeType":"image/png",
			"name":"Image_0",
			"uri":"Image_0.png"
		},
		{
			"mimeType":"image/png",
			"name":"Image_1",
			"uri":"Image_1.png"
		},
		{
			"mimeType":"image/png",
			"name":"Image_2",
			"uri":"Image_2.png"
		},
		{
			"mimeType":"image/png",
			"name":"Image_3",
			"uri":"Image_3.png"
		},
		{
			"mimeType":"image/png",
			"name":"Image_4",
			"uri":"Image_4.png"
		},
		{
			"mimeType":"image/png",
			"name":"Image_5",
			"uri":"Image_5.png"
		},
		{
			"mimeType":"image/png",
			"name":"Image_6",
			"uri":"Image_6.png"
		},
		{
			"mimeType":"image/png",
			"name":"Image_7",
			"uri":"Image_7.png"
		},
		{
			"mimeType":"image/png",
			"name":"Image_8",
			"uri":"Image_8.png"
		},
		{
			"mimeType":"image/png",
			"name":"Image_9",
			"uri":"Image_9.png"
		},
		{
			"mimeType":"image/png",
			"name":"Image_10",
			"uri":"Image_10.png"
		},
		{
			"mimeType":"image/png",
			"name":"Image_11",
			"uri":"Image_11.png"
		},
		{
			"mimeType":"image/png",
			"name":"Image_12",
			"uri":"Image_12.png"
		}
	],
	"accessors":[
		{
			"bufferView":0,
			"componentType":5126,
			"count":84,
			"max":[
				15.054140090942383,
				1.5360000133514404,
				10.39115047454834
			],
			"min":[
				13.006139755249023,
				-1.2740000486373901,
				8.087149620056152
			],
			"type":"VEC3"
		},
		{
			"bufferView":1,
			"componentType":5126,
			"count":84,
			"type":"VEC3"
		},
		{
			"bufferView":2,
			"componentType":5126,
			"count":84,
			"type":"VEC2"
		},
		{
			"bufferView":3,
			"componentType":5123,
			"count":84,
			"type":"SCALAR"
		},
		{
			"bufferView":4,
			"componentType":5126,
			"count":135,
			"max":[
				4.863999843597412,
				5.119999885559082,
				22.527999877929688
			],
			"min":[
				0.7680000066757202,
				-2.303999900817871,
				19.200000762939453
			],
			"type":"VEC3"
		},
		{
			"bufferView":5,
			"componentType":5126,
			"count":135,
			"type":"VEC3"
		},
		{
			"bufferView":6,
			"componentType":5126,
			"count":135,
			"type":"VEC2"
		},
		{
			"bufferView":7,
			"componentType":5123,
			"count":135,
			"type":"SCALAR"
		},
		{
			"bufferView":8,
			"componentType":5126,
			"count":84,
			"max":[
				-13.299030303955078,
				1.5360000133514404,
				9.684040069580078
			],
			"min":[
				-15.347029685974121,
				-1.3240000009536743,
				7.380040168762207
			],
			"type":"VEC3"
		},
		{
			"bufferView":9,
			"componentType":5126,
			"count":84,
			"type":"VEC3"
		},
		{
			"bufferView":10,
			"componentType":5126,
			"count":84,
			"type":"VEC2"
		},
		{
			"bufferView":11,
			"componentType":5126,
			"count":123,
			"max":[
				5.375999927520752,
				3.072000026702881,
				19.968000411987305
			],
			"min":[
				0.5120000243186951,
				-2.559999942779541,
				7.168000221252441
			],
			"type":"VEC3"
		},
		{
			"bufferView":12,
			"componentType":5126,
			"count":123,
			"type":"VEC3"
		},
		{
			"bufferView":13,
			"componentType":5126,
			"count":123,
			"type":"VEC2"
		},
		{
			"bufferView":14,
			"componentType":5123,
			"count":123,
			"type":"SCALAR"
		},
		{
			"bufferView":15,
			"componentType":5126,
			"count":90,
			"max":[
				15.310139656066895,
				1.7920000553131104,
				9.623149871826172
			],
			"min":[
				13.262140274047852,
				-1.2799999713897705,
				6.039150238037109
			],
			"type":"VEC3"
		},
		{
			"bufferView":16,
			"componentType":5126,
			"count":90,
			"type":"VEC3"
		},
		{
			"bufferView":17,
			"componentType":5126,
			"count":90,
			"type":"VEC2"
		},
		{
			"bufferView":18,
			"componentType":5123,
			"count":90,
			"type":"SCALAR"
		},
		{
			"bufferView":19,
			"componentType":5126,
			"count":162,
			"max":[
				16.590139389038086,
				2.0480000972747803,
				2.9671499729156494
			],
			"min":[
				12.494139671325684,
				-3.072000026702881,
				-7.272850036621094
			],
			"type":"VEC3"
		},
		{
			"bufferView":20,
			"componentType":5126,
			"count":162,
			"type":"VEC3"
		},
		{
			"bufferView":21,
			"componentType":5126,
			"count":162,
			"type":"VEC2"
		},
		{
			"bufferView":22,
			"componentType":5123,
			"count":162,
			"type":"SCALAR"
		},
		{
			"bufferView":23,
			"componentType":5126,
			"count":72,
			"max":[
				16.078140258789062,
				1.2799999713897705,
				6.295149803161621
			],
			"min":[
				12.750140190124512,
				-2.0480000972747803,
				0.407150000333786
			],
			"type":"VEC3"
		},
		{
			"bufferView":24,
			"componentType":5126,
			"count":72,
			"type":"VEC3"
		},
		{
			"bufferView":25,
			"componentType":5126,
			"count":72,
			"type":"VEC2"
		},
		{
			"bufferView":26,
			"componentType":5123,
			"count":72,
			"type":"SCALAR"
		},
		{
			"bufferView":27,
			"componentType":5126,
			"count":90,
			"max":[
				5.888000011444092,
				5.119999885559082,
				-10.239999771118164
			],
			"min":[
				-5.888000011444092,
				0,
				-17.663999557495117
			],
			"type":"VEC3"
		},
		{
			"bufferView":28,
			"componentType":5126,
			"count":90,
			"type":"VEC3"
		},
		{
			"bufferView":29,
			"componentType":5126,
			"count":90,
			"type":"VEC2"
		},
		{
			"bufferView":30,
			"componentType":5126,
			"count":33,
			"max":[
				5.119999885559082,
				0.5120000243186951,
				-5.631999969482422
			],
			"min":[
				-5.119999885559082,
				-3.5840001106262207,
				-12.288000106811523
			],
			"type":"VEC3"
		},
		{
			"bufferView":31,
			"componentType":5126,
			"count":33,
			"type":"VEC3"
		},
		{
			"bufferView":32,
			"componentType":5126,
			"count":33,
			"type":"VEC2"
		},
		{
			"bufferView":33,
			"componentType":5123,
			"count":33,
			"type":"SCALAR"
		},
		{
			"bufferView":34,
			"componentType":5126,
			"count":57,
			"max":[
				4.863999843597412,
				4.863999843597412,
				-5.375999927520752
			],
			"min":[
				-4.863999843597412,
				0.25600001215934753,
				-11.263999938964844
			],
			"type":"VEC3"
		},
		{
			"bufferView":35,
			"componentType":5126,
			"count":57,
			"type":"VEC3"
		},
		{
			"bufferView":36,
			"componentType":5126,
			"count":57,
			"type":"VEC2"
		},
		{
			"bufferView":37,
			"componentType":5123,
			"count":57,
			"type":"SCALAR"
		},
		{
			"bufferView":38,
			"componentType":5126,
			"count":108,
			"max":[
				-0.5120000243186951,
				3.8399999141693115,
				11.263999938964844
			],
			"min":[
				-5.375999927520752,
				-2.303999900817871,
				-1.5360000133514404
			],
			"type":"VEC3"
		},
		{
			"bufferView":39,
			"componentType":5126,
			"count":108,
			"type":"VEC3"
		},
		{
			"bufferView":40,
			"componentType":5126,
			"count":108,
			"type":"VEC2"
		},
		{
			"bufferView":41,
			"componentType":5123,
			"count":108,
			"type":"SCALAR"
		},
		{
			"bufferView":42,
			"componentType":5126,
			"count":90,
			"max":[
				-13.007019996643066,
				1.7920000553131104,
				9.46403980255127
			],
			"min":[
				-15.055020332336426,
				-1.2799999713897705,
				5.880040168762207
			],
			"type":"VEC3"
		},
		{
			"bufferView":43,
			"componentType":5126,
			"count":90,
			"type":"VEC3"
		},
		{
			"bufferView":44,
			"componentType":5126,
			"count":90,
			"type":"VEC2"
		},
		{
			"bufferView":45,
			"componentType":5126,
			"count":222,
			"max":[
				5.119999885559082,
				4.0960001945495605,
				4.863999843597412
			],
			"min":[
				-5.119999885559082,
				-4.0960001945495605,
				-5.888000011444092
			],
			"type":"VEC3"
		},
		{
			"bufferView":46,
			"componentType":5126,
			"count":222,
			"type":"VEC3"
		},
		{
			"bufferView":47,
			"componentType":5126,
			"count":222,
			"type":"VEC2"
		},
		{
			"bufferView":48,
			"componentType":5123,
			"count":222,
			"type":"SCALAR"
		},
		{
			"bufferView":49,
			"componentType":5126,
			"count":135,
			"max":[
				-0.7680000066757202,
				5.119999885559082,
				22.527999877929688
			],
			"min":[
				-4.863999843597412,
				-2.303999900817871,
				19.200000762939453
			],
			"type":"VEC3"
		},
		{
			"bufferView":50,
			"componentType":5126,
			"count":135,
			"type":"VEC3"
		},
		{
			"bufferView":51,
			"componentType":5126,
			"count":135,
			"type":"VEC2"
		},
		{
			"bufferView":52,
			"componentType":5126,
			"count":123,
			"max":[
				-0.5120000243186951,
				3.072000026702881,
				19.968000411987305
			],
			"min":[
				-5.375999927520752,
				-2.559999942779541,
				7.168000221252441
			],
			"type":"VEC3"
		},
		{
			"bufferView":53,
			"componentType":5126,
			"count":123,
			"type":"VEC3"
		},
		{
			"bufferView":54,
			"componentType":5126,
			"count":123,
			"type":"VEC2"
		},
		{
			"bufferView":55,
			"componentType":5126,
			"count":108,
			"max":[
				5.375999927520752,
				3.8399999141693115,
				11.263999938964844
			],
			"min":[
				0.5120000243186951,
				-2.303999900817871,
				-1.5360000133514404
			],
			"type":"VEC3"
		},
		{
			"bufferView":56,
			"componentType":5126,
			"count":108,
			"type":"VEC3"
		},
		{
			"bufferView":57,
			"componentType":5126,
			"count":108,
			"type":"VEC2"
		},
		{
			"bufferView":58,
			"componentType":5126,
			"count":57,
			"max":[
				5.888000011444092,
				0.25600001215934753,
				-11.263999938964844
			],
			"min":[
				-5.888000011444092,
				-3.5840001106262207,
				-16.384000778198242
			],
			"type":"VEC3"
		},
		{
			"bufferView":59,
			"componentType":5126,
			"count":57,
			"type":"VEC3"
		},
		{
			"bufferView":60,
			"componentType":5126,
			"count":57,
			"type":"VEC2"
		},
		{
			"bufferView":61,
			"componentType":5126,
			"count":189,
			"max":[
				2.303999900817871,
				2.0480000972747803,
				-15.616000175476074
			],
			"min":[
				-2.303999900817871,
				-2.559999942779541,
				-22.784000396728516
			],
			"type":"VEC3"
		},
		{
			"bufferView":62,
			"componentType":5126,
			"count":189,
			"type":"VEC3"
		},
		{
			"bufferView":63,
			"componentType":5126,
			"count":189,
			"type":"VEC2"
		},
		{
			"bufferView":64,
			"componentType":5123,
			"count":189,
			"type":"SCALAR"
		},
		{
			"bufferView":65,
			"componentType":5126,
			"count":72,
			"max":[
				-12.495019912719727,
				1.2799999713897705,
				6.136040210723877
			],
			"min":[
				-15.823019981384277,
				-2.0480000972747803,
				0.24804000556468964
			],
			"type":"VEC3"
		},
		{
			"bufferView":66,
			"componentType":5126,
			"count":72,
			"type":"VEC3"
		},
		{
			"bufferView":67,
			"componentType":5126,
			"count":72,
			"type":"VEC2"
		},
		{
			"bufferView":68,
			"componentType":5126,
			"count":162,
			"max":[
				-12.239020347595215,
				2.0480000972747803,
				2.808039903640747
			],
			"min":[
				-16.335020065307617,
				-3.072000026702881,
				-7.431960105895996
			],
			"type":"VEC3"
		},
		{
			"bufferView":69,
			"componentType":5126,
			"count":162,
			"type":"VEC3"
		},
		{
			"bufferView":70,
			"componentType":5126,
			"count":162,
			"type":"VEC2"
		},
		{
			"bufferView":71,
			"componentType":5126,
			"count":168,
			"max":[
				2.0480000972747803,
				3.8399999141693115,
				-16.128000259399414
			],
			"min":[
				-2.0480000972747803,
				1.5360000133514404,
				-22.27199935913086
			],
			"type":"VEC3"
		},
		{
			"bufferView":72,
			"componentType":5126,
			"count":168,
			"type":"VEC3"
		},
		{
			"bufferView":73,
			"componentType":5126,
			"count":168,
			"type":"VEC2"
		},
		{
			"bufferView":74,
			"componentType":5123,
			"count":168,
			"type":"SCALAR"
		}
	],
	"bufferViews":[
		{
			"buffer":0,
			"byteLength":1008,
			"byteOffset":0,
			"target":34962
		},
		{
			"buffer":0,
			"byteLength":1008,
			"byteOffset":1008,
			"target":34962
		},
		{
			"buffer":0,
			"byteLength":672,
			"byteOffset":2016,
			"target":34962
		},
		{
			"buffer":0,
			"byteLength":168,
			"byteOffset":2688,
			"target":34963
		},
		{
			"buffer":0,
			"byteLength":1620,
			"byteOffset":2856,
			"target":34962
		},
		{
			"buffer":0,
			"byteLength":1620,
			"byteOffset":4476,
			"target":34962
		},
		{
			"buffer":0,
			"byteLength":1080,
			"byteOffset":6096,
			"target":34962
		},
		{
			"buffer":0,
			"byteLength":270,
			"byteOffset":7176,
			"target":34963
		},
		{
			"buffer":0,
			"byteLength":1008,
			"byteOffset":7448,
			"target":34962
		},
		{
			"buffer":0,
			"byteLength":1008,
			"byteOffset":8456,
			"target":34962
		},
		{
			"buffer":0,
			"byteLength":672,
			"byteOffset":9464,
			"target":34962
		},
		{
			"buffer":0,
			"byteLength":1476,
			"byteOffset":10136,
			"target":34962
		},
		{
			"buffer":0,
			"byteLength":1476,
			"byteOffset":11612,
			"target":34962
		},
		{
			"buffer":0,
			"byteLength":984,
			"byteOffset":13088,
			"target":34962
		},
		{
			"buffer":0,
			"byteLength":246,
			"byteOffset":14072,
			"target":34963
		},
		{
			"buffer":0,
			"byteLength":1080,
			"byteOffset":14320,
			"target":34962
		},
		{
			"buffer":0,
			"byteLength":1080,
			"byteOffset":15400,
			"target":34962
		},
		{
			"buffer":0,
			"byteLength":720,
			"byteOffset":16480,
			"target":34962
		},
		{
			"buffer":0,
			"byteLength":180,
			"byteOffset":17200,
			"target":34963
		},
		{
			"buffer":0,
			"byteLength":1944,
			"byteOffset":17380,
			"target":34962
		},
		{
			"buffer":0,
			"byteLength":1944,
			"byteOffset":19324,
			"target":34962
		},
		{
			"buffer":0,
			"byteLength":1296,
			"byteOffset":21268,
			"target":34962
		},
		{
			"buffer":0,
			"byteLength":324,
			"byteOffset":22564,
			"target":34963
		},
		{
			"buffer":0,
			"byteLength":864,
			"byteOffset":22888,
			"target":34962
		},
		{
			"buffer":0,
			"byteLength":864,
			"byteOffset":23752,
			"target":34962
		},
		{
			"buffer":0,
			"byteLength":576,
			"byteOffset":24616,
			"target":34962
		},
		{
			"buffer":0,
			"byteLength":144,
			"byteOffset":25192,
			"target":34963
		},
		{
			"buffer":0,
			"byteLength":1080,
			"byteOffset":25336,
			"target":34962
		},
		{
			"buffer":0,
			"byteLength":1080,
			"byteOffset":26416,
			"target":34962
		},
		{
			"buffer":0,
			"byteLength":720,
			"byteOffset":27496,
			"target":34962
		},
		{
			"buffer":0,
			"byteLength":396,
			"byteOffset":28216,
			"target":34962
		},
		{
			"buffer":0,
			"byteLength":396,
			"byteOffset":28612,
			"target":34962
		},
		{
			"buffer":0,
			"byteLength":264,
			"byteOffset":29008,
			"target":34962
		},
		{
			"buffer":0,
			"byteLength":66,
			"byteOffset":29272,
			"target":34963
		},
		{
			"buffer":0,
			"byteLength":684,
			"byteOffset":29340,
			"target":34962
		},
		{
			"buffer":0,
			"byteLength":684,
			"byteOffset":30024,
			"target":34962
		},
		{
			"buffer":0,
			"byteLength":456,
			"byteOffset":30708,
			"target":34962
		},
		{
			"buffer":0,
			"byteLength":114,
			"byteOffset":31164,
			"target":34963
		},
		{
			"buffer":0,
			"byteLength":1296,
			"byteOffset":31280,
			"target":34962
		},
		{
			"buffer":0,
			"byteLength":1296,
			"byteOffset":32576,
			"target":34962
		},
		{
			"buffer":0,
			"byteLength":864,
			"byteOffset":33872,
			"target":34962
		},
		{
			"buffer":0,
			"byteLength":216,
			"byteOffset":34736,
			"target":34963
		},
		{
			"buffer":0,
			"byteLength":1080,
			"byteOffset":34952,
			"target":34962
		},
		{
			"buffer":0,
			"byteLength":1080,
			"byteOffset":36032,
			"target":34962
		},
		{
			"buffer":0,
			"byteLength":720,
			"byteOffset":37112,
			"target":34962
		},
		{
			"buffer":0,
			"byteLength":2664,
			"byteOffset":37832,
			"target":34962
		},
		{
			"buffer":0,
			"byteLength":2664,
			"byteOffset":40496,
			"target":34962
		},
		{
			"buffer":0,
			"byteLength":1776,
			"byteOffset":43160,
			"target":34962
		},
		{
			"buffer":0,
			"byteLength":444,
			"byteOffset":44936,
			"target":34963
		},
		{
			"buffer":0,
			"byteLength":1620,
			"byteOffset":45380,
			"target":34962
		},
		{
			"buffer":0,
			"byteLength":1620,
			"byteOffset":47000,
			"target":34962
		},
		{
			"buffer":0,
			"byteLength":1080,
			"byteOffset":48620,
			"target":34962
		},
		{
			"buffer":0,
			"byteLength":1476,
			"byteOffset":49700,
			"target":34962
		},
		{
			"buffer":0,
			"byteLength":1476,
			"byteOffset":51176,
			"target":34962
		},
		{
			"buffer":0,
			"byteLength":984,
			"byteOffset":52652,
			"target":34962
		},
		{
			"buffer":0,
			"byteLength":1296,
			"byteOffset":53636,
			"target":34962
		},
		{
			"buffer":0,
			"byteLength":1296,
			"byteOffset":54932,
			"target":34962
		},
		{
			"buffer":0,
			"byteLength":864,
			"byteOffset":56228,
			"target":34962
		},
		{
			"buffer":0,
			"byteLength":684,
			"byteOffset":57092,
			"target":34962
		},
		{
			"buffer":0,
			"byteLength":684,
			"byteOffset":57776,
			"target":34962
		},
		{
			"buffer":0,
			"byteLength":456,
			"byteOffset":58460,
			"target":34962
		},
		{
			"buffer":0,
			"byteLength":2268,
			"byteOffset":58916,
			"target":34962
		},
		{
			"buffer":0,
			"byteLength":2268,
			"byteOffset":61184,
			"target":34962
		},
		{
			"buffer":0,
			"byteLength":1512,
			"byteOffset":63452,
			"target":34962
		},
		{
			"buffer":0,
			"byteLength":378,
			"byteOffset":64964,
			"target":34963
		},
		{
			"buffer":0,
			"byteLength":864,
			"byteOffset":65344,
			"target":34962
		},
		{
			"buffer":0,
			"byteLength":864,
			"byteOffset":66208,
			"target":34962
		},
		{
			"buffer":0,
			"byteLength":576,
			"byteOffset":67072,
			"target":34962
		},
		{
			"buffer":0,
			"byteLength":1944,
			"byteOffset":67648,
			"target":34962
		},
		{
			"buffer":0,
			"byteLength":1944,
			"byteOffset":69592,
			"target":34962
		},
		{
			"buffer":0,
			"byteLength":1296,
			"byteOffset":71536,
			"target":34962
		},
		{
			"buffer":0,
			"byteLength":2016,
			"byteOffset":72832,
			"target":34962
		},
		{
			"buffer":0,
			"byteLength":2016,
			"byteOffset":74848,
			"target":34962
		},
		{
			"buffer":0,
			"byteLength":1344,
			"byteOffset":76864,
			"target":34962
		},
		{
			"buffer":0,
			"byteLength":336,
			"byteOffset":78208,
			"target":34963
		}
	],
	"samplers":[
		{
			"magFilter":9728,
			"minFilter":9984
		}
	],
	"buffers":[
		{
			"byteLength":78544,
			"uri":"austin.bin"
		}
	]
}
